<mxfile host="app.diagrams.net" modified="2023-07-18T18:14:49.539Z" agent="Mozilla/5.0 (X11; Linux x86_64; rv:109.0) Gecko/20100101 Firefox/111.0" etag="xjJgg6CizQsuZ77XmqJf" version="21.6.2" type="device">
  <diagram name="Page-1" id="F5YP_6ZQYpNd-fvwxbN8">
    <mxGraphModel dx="1317" dy="1114" grid="1" gridSize="10" guides="1" tooltips="1" connect="1" arrows="1" fold="1" page="1" pageScale="1" pageWidth="850" pageHeight="1100" math="0" shadow="0">
      <root>
        <mxCell id="0" />
        <mxCell id="1" parent="0" />
        <mxCell id="mf4FLGCIT8A18HbWf-Ss-4" value="" style="ellipse;whiteSpace=wrap;html=1;aspect=fixed;fillColor=#dae8fc;strokeColor=#6c8ebf;" vertex="1" parent="1">
          <mxGeometry x="120" y="40" width="80" height="80" as="geometry" />
        </mxCell>
        <mxCell id="mf4FLGCIT8A18HbWf-Ss-5" value="" style="ellipse;whiteSpace=wrap;html=1;aspect=fixed;fillColor=#f8cecc;strokeColor=#b85450;" vertex="1" parent="1">
          <mxGeometry x="50" y="200" width="80" height="80" as="geometry" />
        </mxCell>
        <mxCell id="mf4FLGCIT8A18HbWf-Ss-7" value="" style="ellipse;whiteSpace=wrap;html=1;aspect=fixed;fillColor=#d5e8d4;strokeColor=#82b366;" vertex="1" parent="1">
          <mxGeometry x="180" y="200" width="80" height="80" as="geometry" />
        </mxCell>
        <mxCell id="mf4FLGCIT8A18HbWf-Ss-8" value="" style="ellipse;whiteSpace=wrap;html=1;aspect=fixed;fillColor=#f5f5f5;fontColor=#333333;strokeColor=#666666;" vertex="1" parent="1">
          <mxGeometry x="180" y="340" width="80" height="80" as="geometry" />
        </mxCell>
        <mxCell id="mf4FLGCIT8A18HbWf-Ss-9" value="" style="endArrow=classic;html=1;rounded=0;exitX=0.5;exitY=1;exitDx=0;exitDy=0;entryX=0.5;entryY=0;entryDx=0;entryDy=0;" edge="1" parent="1" source="mf4FLGCIT8A18HbWf-Ss-4" target="mf4FLGCIT8A18HbWf-Ss-5">
          <mxGeometry width="50" height="50" relative="1" as="geometry">
            <mxPoint x="110" y="380" as="sourcePoint" />
            <mxPoint x="160" y="330" as="targetPoint" />
          </mxGeometry>
        </mxCell>
        <mxCell id="mf4FLGCIT8A18HbWf-Ss-11" value="" style="endArrow=classic;html=1;rounded=0;exitX=0.5;exitY=1;exitDx=0;exitDy=0;entryX=0.5;entryY=0;entryDx=0;entryDy=0;" edge="1" parent="1" source="mf4FLGCIT8A18HbWf-Ss-4" target="mf4FLGCIT8A18HbWf-Ss-7">
          <mxGeometry width="50" height="50" relative="1" as="geometry">
            <mxPoint x="210" y="140" as="sourcePoint" />
            <mxPoint x="210" y="210" as="targetPoint" />
          </mxGeometry>
        </mxCell>
        <mxCell id="mf4FLGCIT8A18HbWf-Ss-12" value="" style="ellipse;whiteSpace=wrap;html=1;aspect=fixed;fillColor=#ffe6cc;strokeColor=#d79b00;" vertex="1" parent="1">
          <mxGeometry x="50" y="340" width="80" height="80" as="geometry" />
        </mxCell>
        <mxCell id="mf4FLGCIT8A18HbWf-Ss-14" value="" style="ellipse;whiteSpace=wrap;html=1;aspect=fixed;fillColor=#b0e3e6;strokeColor=#0e8088;" vertex="1" parent="1">
          <mxGeometry x="120" y="480" width="80" height="80" as="geometry" />
        </mxCell>
        <mxCell id="mf4FLGCIT8A18HbWf-Ss-16" value="" style="endArrow=classic;html=1;rounded=0;exitX=0.5;exitY=1;exitDx=0;exitDy=0;entryX=0.5;entryY=0;entryDx=0;entryDy=0;" edge="1" parent="1" source="mf4FLGCIT8A18HbWf-Ss-5" target="mf4FLGCIT8A18HbWf-Ss-12">
          <mxGeometry width="50" height="50" relative="1" as="geometry">
            <mxPoint x="201" y="289" as="sourcePoint" />
            <mxPoint x="130" y="360" as="targetPoint" />
          </mxGeometry>
        </mxCell>
        <mxCell id="mf4FLGCIT8A18HbWf-Ss-17" value="" style="endArrow=classic;html=1;rounded=0;exitX=0.5;exitY=1;exitDx=0;exitDy=0;entryX=0.5;entryY=0;entryDx=0;entryDy=0;" edge="1" parent="1" source="mf4FLGCIT8A18HbWf-Ss-7" target="mf4FLGCIT8A18HbWf-Ss-8">
          <mxGeometry width="50" height="50" relative="1" as="geometry">
            <mxPoint x="261" y="289" as="sourcePoint" />
            <mxPoint x="190" y="360" as="targetPoint" />
          </mxGeometry>
        </mxCell>
        <mxCell id="mf4FLGCIT8A18HbWf-Ss-18" value="" style="endArrow=classic;html=1;rounded=0;exitX=0.5;exitY=1;exitDx=0;exitDy=0;entryX=0.5;entryY=0;entryDx=0;entryDy=0;" edge="1" parent="1" source="mf4FLGCIT8A18HbWf-Ss-12" target="mf4FLGCIT8A18HbWf-Ss-14">
          <mxGeometry width="50" height="50" relative="1" as="geometry">
            <mxPoint x="201" y="289" as="sourcePoint" />
            <mxPoint x="130" y="360" as="targetPoint" />
          </mxGeometry>
        </mxCell>
        <mxCell id="mf4FLGCIT8A18HbWf-Ss-19" value="" style="endArrow=classic;html=1;rounded=0;exitX=0.5;exitY=1;exitDx=0;exitDy=0;entryX=0.5;entryY=0;entryDx=0;entryDy=0;" edge="1" parent="1" source="mf4FLGCIT8A18HbWf-Ss-8" target="mf4FLGCIT8A18HbWf-Ss-14">
          <mxGeometry width="50" height="50" relative="1" as="geometry">
            <mxPoint x="130" y="440" as="sourcePoint" />
            <mxPoint x="210" y="490" as="targetPoint" />
          </mxGeometry>
        </mxCell>
        <mxCell id="mf4FLGCIT8A18HbWf-Ss-20" value="&lt;font style=&quot;font-size: 16px;&quot;&gt;DNN Graph&lt;/font&gt;" style="text;html=1;align=center;verticalAlign=middle;resizable=0;points=[];autosize=1;strokeColor=none;fillColor=none;" vertex="1" parent="1">
          <mxGeometry x="105" y="580" width="110" height="30" as="geometry" />
        </mxCell>
        <mxCell id="mf4FLGCIT8A18HbWf-Ss-21" value="&lt;font style=&quot;font-size: 16px;&quot;&gt;2&lt;/font&gt;" style="whiteSpace=wrap;html=1;aspect=fixed;fillColor=#f8cecc;strokeColor=#b85450;" vertex="1" parent="1">
          <mxGeometry x="430" y="120" width="80" height="80" as="geometry" />
        </mxCell>
        <mxCell id="mf4FLGCIT8A18HbWf-Ss-22" value="&lt;font style=&quot;font-size: 16px;&quot;&gt;3&lt;/font&gt;" style="whiteSpace=wrap;html=1;aspect=fixed;fillColor=#d5e8d4;strokeColor=#82b366;" vertex="1" parent="1">
          <mxGeometry x="510" y="120" width="80" height="80" as="geometry" />
        </mxCell>
        <mxCell id="mf4FLGCIT8A18HbWf-Ss-23" value="&lt;font style=&quot;font-size: 16px;&quot;&gt;4&lt;/font&gt;" style="whiteSpace=wrap;html=1;aspect=fixed;fillColor=#ffe6cc;strokeColor=#d79b00;" vertex="1" parent="1">
          <mxGeometry x="590" y="120" width="80" height="80" as="geometry" />
        </mxCell>
        <mxCell id="mf4FLGCIT8A18HbWf-Ss-24" value="&lt;font style=&quot;font-size: 16px;&quot;&gt;5&lt;/font&gt;" style="whiteSpace=wrap;html=1;aspect=fixed;fillColor=#f5f5f5;strokeColor=#666666;fontColor=#333333;" vertex="1" parent="1">
          <mxGeometry x="670" y="120" width="80" height="80" as="geometry" />
        </mxCell>
        <mxCell id="mf4FLGCIT8A18HbWf-Ss-25" value="&lt;font style=&quot;font-size: 16px;&quot;&gt;1&lt;/font&gt;" style="whiteSpace=wrap;html=1;aspect=fixed;fillColor=#dae8fc;strokeColor=#6c8ebf;" vertex="1" parent="1">
          <mxGeometry x="350" y="120" width="80" height="80" as="geometry" />
        </mxCell>
        <mxCell id="mf4FLGCIT8A18HbWf-Ss-26" value="&lt;font style=&quot;font-size: 16px;&quot;&gt;6&lt;/font&gt;" style="whiteSpace=wrap;html=1;aspect=fixed;fillColor=#b0e3e6;strokeColor=#0e8088;" vertex="1" parent="1">
          <mxGeometry x="750" y="120" width="80" height="80" as="geometry" />
        </mxCell>
        <mxCell id="mf4FLGCIT8A18HbWf-Ss-27" value="" style="shape=flexArrow;endArrow=classic;html=1;rounded=0;" edge="1" parent="1">
          <mxGeometry width="50" height="50" relative="1" as="geometry">
            <mxPoint x="290" y="310" as="sourcePoint" />
            <mxPoint x="340" y="220" as="targetPoint" />
          </mxGeometry>
        </mxCell>
        <mxCell id="mf4FLGCIT8A18HbWf-Ss-28" value="" style="shape=flexArrow;endArrow=classic;html=1;rounded=0;" edge="1" parent="1">
          <mxGeometry width="50" height="50" relative="1" as="geometry">
            <mxPoint x="570" y="240" as="sourcePoint" />
            <mxPoint x="570" y="320" as="targetPoint" />
          </mxGeometry>
        </mxCell>
        <mxCell id="mf4FLGCIT8A18HbWf-Ss-29" value="&amp;nbsp;" style="text;whiteSpace=wrap;html=1;" vertex="1" parent="1">
          <mxGeometry x="450" y="450" width="40" height="40" as="geometry" />
        </mxCell>
        <mxCell id="mf4FLGCIT8A18HbWf-Ss-36" style="edgeStyle=orthogonalEdgeStyle;rounded=0;orthogonalLoop=1;jettySize=auto;html=1;exitX=0.5;exitY=1;exitDx=0;exitDy=0;entryX=0.5;entryY=0;entryDx=0;entryDy=0;" edge="1" parent="1" source="mf4FLGCIT8A18HbWf-Ss-30" target="mf4FLGCIT8A18HbWf-Ss-31">
          <mxGeometry relative="1" as="geometry" />
        </mxCell>
        <mxCell id="mf4FLGCIT8A18HbWf-Ss-30" value="" style="ellipse;whiteSpace=wrap;html=1;aspect=fixed;fillColor=#dae8fc;strokeColor=#6c8ebf;" vertex="1" parent="1">
          <mxGeometry x="530" y="330" width="80" height="80" as="geometry" />
        </mxCell>
        <mxCell id="mf4FLGCIT8A18HbWf-Ss-31" value="" style="ellipse;whiteSpace=wrap;html=1;aspect=fixed;fillColor=#f8cecc;strokeColor=#b85450;" vertex="1" parent="1">
          <mxGeometry x="530" y="430" width="80" height="80" as="geometry" />
        </mxCell>
        <mxCell id="mf4FLGCIT8A18HbWf-Ss-32" value="" style="ellipse;whiteSpace=wrap;html=1;aspect=fixed;fillColor=#d5e8d4;strokeColor=#82b366;" vertex="1" parent="1">
          <mxGeometry x="530" y="530" width="80" height="80" as="geometry" />
        </mxCell>
        <mxCell id="mf4FLGCIT8A18HbWf-Ss-33" value="" style="ellipse;whiteSpace=wrap;html=1;aspect=fixed;fillColor=#ffe6cc;strokeColor=#d79b00;" vertex="1" parent="1">
          <mxGeometry x="530" y="630" width="80" height="80" as="geometry" />
        </mxCell>
        <mxCell id="mf4FLGCIT8A18HbWf-Ss-40" style="edgeStyle=orthogonalEdgeStyle;rounded=0;orthogonalLoop=1;jettySize=auto;html=1;exitX=0.5;exitY=1;exitDx=0;exitDy=0;entryX=0.5;entryY=0;entryDx=0;entryDy=0;" edge="1" parent="1" source="mf4FLGCIT8A18HbWf-Ss-34" target="mf4FLGCIT8A18HbWf-Ss-35">
          <mxGeometry relative="1" as="geometry" />
        </mxCell>
        <mxCell id="mf4FLGCIT8A18HbWf-Ss-34" value="" style="ellipse;whiteSpace=wrap;html=1;aspect=fixed;fillColor=#f5f5f5;fontColor=#333333;strokeColor=#666666;" vertex="1" parent="1">
          <mxGeometry x="530" y="740" width="80" height="80" as="geometry" />
        </mxCell>
        <mxCell id="mf4FLGCIT8A18HbWf-Ss-35" value="" style="ellipse;whiteSpace=wrap;html=1;aspect=fixed;fillColor=#b0e3e6;strokeColor=#0e8088;" vertex="1" parent="1">
          <mxGeometry x="530" y="840" width="80" height="80" as="geometry" />
        </mxCell>
        <mxCell id="mf4FLGCIT8A18HbWf-Ss-43" value="" style="curved=1;endArrow=classic;html=1;rounded=0;entryX=0.5;entryY=0;entryDx=0;entryDy=0;exitX=0.494;exitY=1.087;exitDx=0;exitDy=0;exitPerimeter=0;" edge="1" parent="1" source="mf4FLGCIT8A18HbWf-Ss-30" target="mf4FLGCIT8A18HbWf-Ss-32">
          <mxGeometry width="50" height="50" relative="1" as="geometry">
            <mxPoint x="400" y="440" as="sourcePoint" />
            <mxPoint x="420" y="600" as="targetPoint" />
            <Array as="points">
              <mxPoint x="480" y="410" />
              <mxPoint x="480" y="470" />
            </Array>
          </mxGeometry>
        </mxCell>
        <mxCell id="mf4FLGCIT8A18HbWf-Ss-44" value="" style="curved=1;endArrow=classic;html=1;rounded=0;exitX=0.5;exitY=1;exitDx=0;exitDy=0;entryX=0.5;entryY=0;entryDx=0;entryDy=0;" edge="1" parent="1" source="mf4FLGCIT8A18HbWf-Ss-32" target="mf4FLGCIT8A18HbWf-Ss-34">
          <mxGeometry width="50" height="50" relative="1" as="geometry">
            <mxPoint x="430" y="640" as="sourcePoint" />
            <mxPoint x="480" y="590" as="targetPoint" />
            <Array as="points">
              <mxPoint x="480" y="640" />
              <mxPoint x="490" y="680" />
            </Array>
          </mxGeometry>
        </mxCell>
        <mxCell id="mf4FLGCIT8A18HbWf-Ss-45" value="" style="curved=1;endArrow=classic;html=1;rounded=0;exitX=0.452;exitY=0.994;exitDx=0;exitDy=0;exitPerimeter=0;entryX=0.5;entryY=0;entryDx=0;entryDy=0;" edge="1" parent="1" source="mf4FLGCIT8A18HbWf-Ss-33" target="mf4FLGCIT8A18HbWf-Ss-35">
          <mxGeometry width="50" height="50" relative="1" as="geometry">
            <mxPoint x="420" y="680" as="sourcePoint" />
            <mxPoint x="470" y="630" as="targetPoint" />
            <Array as="points">
              <mxPoint x="610" y="720" />
              <mxPoint x="690" y="760" />
            </Array>
          </mxGeometry>
        </mxCell>
        <mxCell id="mf4FLGCIT8A18HbWf-Ss-46" value="" style="curved=1;endArrow=classic;html=1;rounded=0;exitX=0.5;exitY=1;exitDx=0;exitDy=0;entryX=0.5;entryY=0;entryDx=0;entryDy=0;" edge="1" parent="1" source="mf4FLGCIT8A18HbWf-Ss-31" target="mf4FLGCIT8A18HbWf-Ss-33">
          <mxGeometry width="50" height="50" relative="1" as="geometry">
            <mxPoint x="670" y="560" as="sourcePoint" />
            <mxPoint x="720" y="510" as="targetPoint" />
            <Array as="points">
              <mxPoint x="630" y="560" />
              <mxPoint x="640" y="580" />
            </Array>
          </mxGeometry>
        </mxCell>
      </root>
    </mxGraphModel>
  </diagram>
</mxfile>
